<svg version="1.1" id="Layer_1" xmlns="http://www.w3.org/2000/svg" xmlns:xlink="http://www.w3.org/1999/xlink" x="0px"
  y="0px" width="100%" viewBox="0 0 482 158" enable-background="new 0 0 482 158" xml:space="preserve">
  <path fill="#000000" opacity="0.000000" stroke="none" d="
M482.643890,110.771439
	C483.000000,125.485443 482.859863,139.973190 483.097382,154.454727
	C483.157593,158.126175 482.411896,159.105927 478.552612,159.102188
	C351.014282,158.978668 223.475784,159.000000 95.468658,159.000000
	C93.853920,155.365860 97.061546,155.755371 98.760368,155.301910
	C109.691429,152.384094 119.687027,147.589447 128.467773,140.482544
	C144.132309,127.804092 153.614319,111.434784 156.672745,91.503998
	C160.602661,65.893959 152.967148,43.741024 135.456467,25.086706
	C126.195831,15.221252 114.492928,8.843450 101.492264,4.927675
	C99.591072,4.355040 96.922112,4.640440 96.785988,1.317103
	C224.045120,1.000000 351.090271,1.019548 478.135254,0.905417
	C481.938232,0.902000 483.193970,1.310488 483.136475,5.628068
	C482.841705,27.769621 483.000000,49.917206 483.000000,72.531342
	C479.479553,75.335007 475.633911,74.509018 471.884735,74.000671
	C469.461273,73.672073 468.897827,71.635803 468.692566,69.535896
	C468.400757,66.550522 468.711700,63.545227 468.424561,60.560352
	C468.255249,58.800163 467.740814,57.201096 465.644958,57.003006
	C463.403503,56.791153 462.351227,58.198181 461.805878,60.143608
	C461.670654,60.626003 461.568359,61.123940 461.569946,61.619122
	C461.611359,74.419159 460.960114,87.220497 461.964813,100.018730
	C462.613068,108.276207 466.744415,111.946991 477.886780,111.103920
	C479.354523,110.992859 480.743805,110.153976 482.643890,110.771439
z" />
  <path fill="#EB6126" opacity="1.000000" stroke="none" d="
M96.531342,1.000000
	C96.393906,3.143628 98.002060,2.731104 99.198540,3.028492
	C112.969894,6.451374 125.290871,12.953624 135.195526,22.937733
	C147.763901,35.606911 155.833633,50.775684 158.111053,68.955460
	C161.608047,96.870827 152.507736,120.015907 132.382828,138.918350
	C122.493629,148.206863 110.371269,153.975449 97.056595,156.965851
	C96.055191,157.190781 95.086952,157.210526 94.786133,158.628082
	C91.307091,159.000000 87.614182,159.000000 83.460632,159.000000
	C81.307251,157.240143 79.485321,156.930573 77.247574,158.754822
	C72.975456,159.000000 68.950912,159.000000 64.463181,159.000000
	C57.034580,156.867264 49.974579,155.047638 43.448273,151.634415
	C21.542799,140.177994 7.411693,122.622360 1.244457,98.277367
	C1.000000,86.312439 1.000000,74.624878 1.000000,62.468658
	C3.784122,52.602215 7.015608,43.421703 12.645285,35.237858
	C24.649372,17.787539 40.691010,6.247644 61.723591,1.244330
	C73.354225,1.000000 84.708458,1.000000 96.531342,1.000000
z" />
  <path fill="#000000" opacity="0.000000" stroke="none" d="
M1.000000,98.468658
	C2.380925,97.205025 2.671453,98.240463 2.937543,99.195892
	C11.587605,130.255264 31.619745,149.506714 62.927383,157.101654
	C63.487816,157.237625 63.930130,157.860474 64.213783,158.628067
	C44.070820,159.000000 24.141048,158.925781 4.213125,159.084122
	C1.390891,159.106537 0.902493,158.446625 0.923275,155.734879
	C1.068359,136.803268 1.000000,117.870033 1.000000,98.468658
z" />
  <path fill="#000000" opacity="0.000000" stroke="none" d="
M61.531342,1.000000
	C62.792793,2.384750 61.757671,2.678069 60.797680,2.937484
	C30.157406,11.217279 10.827747,30.709850 2.760541,61.403877
	C2.653872,61.809727 2.085881,62.094334 1.366606,62.217766
	C1.000000,42.736256 1.077208,23.471859 0.915238,4.209475
	C0.891444,1.379647 1.564242,0.903259 4.268422,0.923815
	C23.198940,1.067716 42.131069,1.000000 61.531342,1.000000
z" />
  <path fill="#FFFFFF" opacity="1.000000" stroke="none" d="
M483.000000,110.583336
	C478.434570,113.196716 473.821655,113.395073 468.884216,112.086502
	C464.842590,111.015343 461.558014,107.644028 460.963196,103.425499
	C458.967255,89.269791 460.416992,75.051826 460.046844,60.869030
	C459.936890,56.656242 462.565155,54.422352 466.413086,55.029800
	C468.602081,55.375351 470.247284,56.147392 470.070923,59.061321
	C469.810730,63.359833 468.567963,68.527473 470.435883,71.777748
	C472.505707,75.379295 478.391602,71.562065 482.619751,73.345856
	C483.000000,75.041664 483.000000,77.083336 483.000000,79.562500
	C480.742523,81.938210 477.979095,81.353416 475.387756,81.436363
	C472.725037,81.521599 471.452332,82.696007 471.453552,85.377487
	C471.454773,88.023766 471.435120,90.670578 471.436401,93.317101
	C471.440033,100.830292 471.440063,100.845322 478.817841,102.975098
	C480.312073,103.406448 481.529541,104.159615 482.719482,105.707474
	C483.000000,107.388893 483.000000,108.777779 483.000000,110.583336
z" />
  <path fill="#000000" opacity="1.000000" stroke="none" d="
M483.000000,105.531349
	C479.728729,104.488571 476.408173,103.584190 472.686554,103.907509
	C470.273071,104.117180 470.109283,101.673851 470.064392,100.045341
	C469.903931,94.224937 470.114319,88.394173 469.946533,82.574188
	C469.876495,80.144623 471.012756,80.030396 472.927521,79.941544
	C476.024719,79.797836 479.206848,80.748619 482.611023,79.676918
	C483.000000,88.354233 483.000000,96.708466 483.000000,105.531349
z" />
  <path fill="#EB6126" opacity="1.000000" stroke="none" d="
M77.428467,159.000000
	C78.488800,154.815369 80.472778,154.677750 82.956955,158.638199
	C81.285645,159.000000 79.571281,159.000000 77.428467,159.000000
z" />
  <path fill="#FFFFFF" opacity="1.000000" stroke="none" d="
M331.057159,111.989326
	C325.072479,114.014465 323.049225,112.790131 323.009552,107.336227
	C322.967224,101.513680 322.894867,95.688049 323.036011,89.868622
	C323.134064,85.825531 320.484955,83.403717 317.773315,81.501205
	C315.606628,79.981049 312.637238,80.772377 310.376862,82.295715
	C307.521942,84.219757 307.058624,87.345009 307.019806,90.481964
	C306.949860,96.137589 306.767548,101.807671 307.082611,107.446556
	C307.288879,111.138535 305.429291,112.896614 302.383179,112.843498
	C299.687408,112.796478 297.876923,111.215492 297.913818,107.710434
	C298.100983,89.911125 298.100647,72.107727 297.913788,54.308403
	C297.877136,50.815849 299.654053,49.213409 302.364929,49.154507
	C305.425568,49.088001 307.225800,50.854820 307.083344,54.533230
	C306.801086,61.821941 306.999969,69.129288 306.999969,76.969917
	C311.409332,73.619453 315.386810,70.830017 321.249542,72.554718
	C329.066986,74.854462 331.973358,80.790939 332.795746,87.598053
	C333.667358,94.812790 332.975067,102.214653 333.005432,109.534637
	C333.010376,110.723061 332.157623,111.247223 331.057159,111.989326
z" />
  <path fill="#FFFFFF" opacity="1.000000" stroke="none" d="
M393.823517,112.352295
	C387.050964,110.628944 383.394745,106.394043 382.585419,100.033852
	C381.511536,91.594383 380.063599,82.780663 388.051544,76.508614
	C393.856384,71.950722 400.163116,70.460693 407.425293,73.777046
	C413.610992,76.601807 416.845306,80.990250 416.965179,87.626793
	C417.080292,94.000587 415.965546,94.997932 409.669037,94.999733
	C404.846283,95.001106 400.008331,95.232697 395.205994,94.919594
	C391.918060,94.705223 391.474213,96.365036 392.063477,98.718224
	C392.910461,102.100510 395.039917,104.709145 398.680756,104.906784
	C402.353821,105.106171 406.154083,105.719765 409.582520,103.136284
	C411.368866,101.790222 413.503784,101.501129 415.102142,104.264709
	C416.729919,107.079262 415.682495,108.656395 413.462067,110.175629
	C407.430450,114.302589 400.965485,114.958412 393.823517,112.352295
z" />
  <path fill="#FFFFFF" opacity="1.000000" stroke="none" d="
M240.043304,113.999924
	C236.415237,112.961884 232.914993,113.317238 229.872864,111.451340
	C224.367386,108.074539 220.911362,103.621445 220.985275,96.871849
	C221.065506,89.548988 219.891968,81.915886 226.881531,76.589134
	C232.095398,72.615646 239.078812,70.113434 246.711731,73.876534
	C252.708878,76.833176 255.891281,81.343475 255.963913,87.932304
	C256.018890,92.919655 253.792618,94.983986 248.821106,94.996346
	C242.678009,95.011612 236.534851,95.000000 230.350922,95.000000
	C232.165100,104.762711 239.079834,108.364555 247.657898,103.566475
	C251.015457,101.688438 252.836441,102.485527 254.418915,105.008308
	C256.422028,108.201698 253.179932,109.582687 251.416672,110.724602
	C248.188156,112.815399 244.433914,113.929459 240.043304,113.999924
z" />
  <path fill="#FFFFFF" opacity="1.000000" stroke="none" d="
M430.710938,74.271881
	C433.313477,78.372940 435.667908,82.183525 438.191711,86.268234
	C440.817963,82.225998 443.074890,78.602814 445.486115,75.085381
	C447.645050,71.935951 450.601959,72.510872 453.278809,74.092644
	C456.315643,75.887131 455.221649,78.023041 453.388123,80.228615
	C451.857025,82.070381 450.679779,84.205696 449.339081,86.206497
	C444.616058,93.254807 444.563934,93.734909 449.897461,100.318520
	C451.536896,102.342186 452.629272,104.800278 454.358185,106.597374
	C456.896179,109.235390 455.630585,111.149361 453.667511,112.621223
	C451.325653,114.377121 448.568481,115.049385 446.456665,111.920242
	C445.108490,109.922539 443.745087,107.934296 442.437927,105.909897
	C441.220703,104.024826 440.068909,102.097496 438.530670,99.610519
	C436.195435,103.282768 434.031830,106.530357 432.028564,109.874001
	C429.440948,114.192993 426.892944,115.117760 423.387512,112.758827
	C419.527100,110.161018 420.932861,107.368362 423.040375,104.445641
	C425.200500,101.450096 426.842468,97.990837 429.375824,95.379211
	C432.048523,92.623863 430.587921,90.780487 429.069397,88.599480
	C427.044739,85.691444 425.097992,82.724037 422.959351,79.902229
	C421.513916,77.995026 420.172974,75.949753 422.569092,74.225914
	C424.917786,72.536171 427.729797,69.987427 430.710938,74.271881
z" />
  <path fill="#FFFFFF" opacity="1.000000" stroke="none" d="
M341.000000,81.122360
	C341.879669,77.880325 338.490906,73.084892 344.887756,72.937492
	C347.746246,72.871628 349.196289,73.823730 349.224792,76.935768
	C354.375610,72.304733 359.879913,70.170563 366.177673,73.730103
	C372.192719,77.129868 374.868103,82.641731 374.978699,89.410942
	C375.079376,95.572823 374.939972,101.738457 375.023193,107.900864
	C375.070557,111.408752 373.591583,113.040993 370.000641,113.040947
	C366.410736,113.040894 364.930908,111.410965 364.976685,107.902153
	C365.059326,101.573120 365.107056,95.239914 364.969696,88.912788
	C364.834045,82.663841 357.772308,78.628365 352.841217,82.097443
	C349.923340,84.150200 349.016510,87.561264 349.005127,91.096840
	C348.986328,96.927139 348.681458,102.781326 349.114197,108.579384
	C349.393341,112.319664 346.718536,112.570778 344.728424,112.832344
	C342.166870,113.169037 340.860535,111.580658 340.927460,108.590797
	C341.128754,99.599861 341.000000,90.601540 341.000000,81.122360
z" />
  <path fill="#FFFFFF" opacity="1.000000" stroke="none" d="
M209.000000,104.806999
	C208.999756,106.446304 209.043442,107.614075 208.990768,108.777489
	C208.850754,111.870216 207.101151,113.157310 204.126541,112.996590
	C201.270462,112.842285 199.895660,111.700119 199.930267,108.466217
	C200.088837,93.645798 199.896820,78.821442 200.080292,64.001587
	C200.120728,60.735252 199.264832,59.580910 195.988785,59.945667
	C193.521271,60.220409 190.990204,59.870899 188.502686,60.033089
	C185.486771,60.229725 183.906754,59.480175 183.902496,55.966118
	C183.898163,52.375690 185.633850,51.929585 188.568954,51.958553
	C199.226517,52.063736 209.888199,52.127823 220.542923,51.924644
	C223.876373,51.861080 224.996872,53.414421 224.946594,56.203209
	C224.899384,58.822128 223.675415,60.189663 220.633118,60.089897
	C216.876999,59.966721 211.717224,58.353733 209.705582,60.793297
	C207.800049,63.104195 209.029236,68.063156 209.014633,71.858055
	C208.973007,82.683052 209.000000,93.508324 209.000000,104.806999
z" />
  <path fill="#FFFFFF" opacity="1.000000" stroke="none" d="
M285.492035,73.186203
	C287.158356,73.995697 288.575165,74.467659 289.695190,75.326630
	C291.790558,76.933601 291.033936,79.015633 290.466766,81.144936
	C289.842804,83.487450 288.084930,83.181046 286.594543,82.927994
	C284.885895,82.637886 283.290588,81.740089 281.601227,81.265938
	C275.911591,79.669006 272.775024,81.836632 270.784393,87.531982
	C269.569305,91.008415 269.778839,94.434929 270.145355,97.734856
	C270.896545,104.497864 278.758484,107.592728 284.714569,103.770164
	C286.999969,102.303413 289.080383,100.938362 291.035400,104.198723
	C292.728699,107.022652 292.257111,109.256859 289.560272,111.112610
	C282.787598,115.773056 275.689850,114.845871 268.767639,111.874748
	C262.652252,109.249939 260.828735,103.858582 260.986145,97.560234
	C261.102264,92.913773 260.361176,88.113472 261.283142,83.646103
	C263.459839,73.098747 275.108734,70.599014 283.211731,72.684418
	C283.832031,72.844055 284.475739,72.912498 285.492035,73.186203
z" />
  <path fill="#FFFFFF" opacity="1.000000" stroke="none" d="
M74.254456,47.359425
	C68.337051,47.165485 62.679432,47.067650 57.022282,47.089600
	C54.356426,47.099941 52.085388,46.111507 52.177937,43.398098
	C52.266586,40.799095 54.470848,39.797203 57.177769,39.810440
	C71.993561,39.882893 86.810150,39.891949 101.625832,39.808834
	C104.793968,39.791065 106.044594,40.912418 106.081932,44.189423
	C106.122635,47.761559 103.756958,47.208427 101.737350,47.241013
	C96.577988,47.324253 91.416153,47.241714 86.255943,47.291767
	C84.875000,47.305161 82.503204,46.920288 83.131378,49.189137
	C84.920441,55.650826 83.015999,61.976547 83.007828,68.356491
	C82.985222,86.002663 82.990059,103.648888 83.010017,121.295067
	C83.013245,124.146950 83.320755,127.857529 79.576813,127.753181
	C76.092331,127.656067 74.926796,124.479469 74.942406,120.850159
	C75.045471,96.878540 74.983131,72.906227 74.904358,48.470676
	C74.727516,47.839691 74.620979,47.672165 74.254456,47.359425
z" />
  <path fill="#ED7541" opacity="1.000000" stroke="none" d="
M74.092606,47.386066
	C74.286736,47.307442 74.578987,47.400673 74.852646,47.750561
	C74.579857,47.914371 74.365417,47.764610 74.092606,47.386066
z" />
  <path fill="#000000" opacity="1.000000" stroke="none" d="
M394.813110,81.683746
	C401.257782,78.704819 405.577850,80.480614 407.101501,85.997566
	C407.690643,88.130669 407.493378,89.013100 405.209442,89.000175
	C402.569244,88.985222 399.911194,89.184334 397.294769,88.934990
	C395.541229,88.767883 393.095245,90.233185 392.121368,87.866371
	C391.122681,85.439095 392.622101,83.496681 394.813110,81.683746
z" />
  <path fill="#000000" opacity="1.000000" stroke="none" d="
M230.959717,86.146347
	C233.701797,78.727432 240.965042,78.253220 245.212494,83.686203
	C246.326981,85.111755 246.099060,86.535110 245.892120,87.887970
	C245.591873,89.851143 243.783524,88.912216 242.663971,88.953156
	C239.178604,89.080612 235.685501,88.982941 232.195618,89.005501
	C230.111450,89.018974 229.167709,88.501541 230.959717,86.146347
z" />
</svg>
